<?xml version="1.0" encoding="UTF-8"?>
<svg xmlns="http://www.w3.org/2000/svg" xmlns:xlink="http://www.w3.org/1999/xlink" viewBox="0 0 500 404.14">
  <defs>
    <style>
      .cls-1 {
        fill: #e9f4f6;
      }

      .cls-1, .cls-2, .cls-3, .cls-4, .cls-5, .cls-6, .cls-7, .cls-8, .cls-9, .cls-10, .cls-11, .cls-12, .cls-13, .cls-14, .cls-15, .cls-16, .cls-17, .cls-18 {
        stroke-width: 0px;
      }

      .cls-2 {
        fill: #edf4f8;
      }

      .cls-19 {
        clip-path: url(#clippath);
      }

      .cls-3 {
        fill: none;
      }

      .cls-4 {
        fill: #eef1ff;
      }

      .cls-5 {
        fill: #ef9f8a;
      }

      .cls-6 {
        fill: #edf0fc;
      }

      .cls-7 {
        fill: #dbe5ff;
      }

      .cls-8 {
        fill: #daebee;
      }

      .cls-9 {
        fill: #fdbaa0;
      }

      .cls-10, .cls-18 {
        fill: #000;
        opacity: .1;
      }

      .cls-11 {
        fill: #384955;
      }

      .cls-12 {
        fill: #b4e4e8;
      }

      .cls-13 {
        fill: #dbf4f6;
      }

      .cls-14 {
        fill: #bbcdff;
      }

      .cls-20 {
        isolation: isolate;
      }

      .cls-15 {
        fill: #198da5;
      }

      .cls-16 {
        fill: #e79780;
      }

      .cls-17 {
        fill: #fff;
      }

      .cls-18 {
        mix-blend-mode: multiply;
      }
    </style>
    <clipPath id="clippath">
      <circle class="cls-3" cx="190.58" cy="98.15" r="20.72"/>
    </clipPath>
  </defs>
  <g class="cls-20">
    <g id="Calque_1" data-name="Calque 1">
      <g>
        <path class="cls-8" d="M221.95,61.1c-9.35,6.53-20.99,7.7-32.08,6.94-6.38-.44-12.69-1.46-19.05-2.12-3.17-.33-6.35-.56-9.54-.59-.18,0-.35,0-.53,0,.07,0,.51,0,.08,0-.38,0-.76.01-1.14.02-.75.02-1.5.06-2.25.11-1.39.09-2.78.23-4.16.4-1.65.21-3.29.49-4.91.82-.79.16-1.57.34-2.35.53-.36.09-.73.18-1.09.28-.16.04-.31.08-.47.12-.99.27.38-.12-.19.05-3.13.97-6.19,2.05-9.18,3.41-1.71.78-4.04-.12-4.71-1.9-.7-1.87.08-3.88,1.9-4.71,11.13-5.08,23.23-6.91,35.39-6.04,6.31.45,12.57,1.47,18.87,2.11,2.84.29,5.69.51,8.54.55.3,0,.59,0,.89,0,.17,0,.71.04-.07,0,.15,0,.3,0,.44,0,.69-.01,1.38-.03,2.07-.07,1.28-.06,2.56-.16,3.83-.31,1.46-.17,2.91-.4,4.35-.71.72-.15,1.42-.33,2.13-.51-.73.18.24-.07.5-.15.32-.1.65-.2.97-.31,1.37-.46,2.72-1.01,4.02-1.65.65-.32,1.29-.66,1.92-1.02-.66.38.27-.18.45-.3.33-.21.65-.43.97-.66,1.54-1.08,3.88-.99,5.04.65,1.08,1.53,1,3.89-.65,5.04h0Z"/>
        <path class="cls-2" d="M87.85,189.78c7.67,81.05-44.04,143.73,130.3,162.79,30.86,3.37,73.51,5.79,109.5,5.09,29.16-.56,61.23-3.15,89.57-10.48,46.81-12.12,81.67-36.74,82.76-84.69,1.1-49.07-47.67-81.09-39.86-101.24,24.16-62.37-15.02-107.76-92.4-123.88-97.91-20.4-137.42,47.16-177.35,38.38-64.72-14.24-110.33,31.51-102.52,114.03Z"/>
        <path class="cls-9" d="M42.62,316.88s16.15-17.95,20.6-35.8c6.19-24.82,9.95-53.99,11.93-57.76,3.42-6.47,16.52-21.16,20.76-22.95,4.24-1.78,17.72-8.47,20.94-8.22,3.22.25-2.36,12.82-11.37,21.8-9.01,8.98-17.55,22.4-17.55,22.4l-.98,58.78-44.34,21.75Z"/>
        <path class="cls-9" d="M74.05,261.28s8.06-42.41,16.68-49.89c8.62-7.48,19.19-14.13,27.05-12.41,7.86,1.72,23.67,9.31,24.03,11.61.36,2.31-10.32,5.79-18.38,5.11-8.06-.67-24.85,13.68-24.85,13.68l-14.14,29.95-10.39,1.95Z"/>
        <path class="cls-9" d="M86.93,296.93s.91-64.33,4.04-72.08c3.13-7.75,26.2-12.9,33.61-13.72,7.42-.83,26.27,11.71,27.72,16.52,1.78,5.91-11.56,5.49-20.89,2.26-8.57-2.96-17.9,2.92-21.39,3.96-1.02.3-2.56,2.43-4.01,5.32-1.89,3.78-3.63,8.87-3.88,12.96-.82,13.86,16.99,21.98,16.99,21.98l-32.2,22.79Z"/>
        <path class="cls-5" d="M110.81,203.69c-3.23,1.28-6.44,2.6-9.64,3.96-3.11,1.33-6.39,2.56-9.14,4.57-4.93,3.6-7.26,9.53-9.39,15.02-.33.84-1.62.28-1.29-.57,2.18-5.59,4.58-11.55,9.49-15.32,2.67-2.05,5.86-3.32,8.93-4.63,3.48-1.49,6.99-2.94,10.51-4.33.84-.33,1.37.97.53,1.31h0Z"/>
        <g>
          <g>
            <rect class="cls-10" x="255.8" y="60.2" width="213.53" height="241.85" rx="7.01" ry="7.01"/>
            <g>
              <g>
                <rect class="cls-17" x="259.89" y="10.2" width="218.49" height="287.25" rx="7.22" ry="7.22"/>
                <path class="cls-12" d="M335.6,297.45h-68.49c-3.99,0-7.22-3.23-7.22-7.22V70.45h75.71v226.99Z"/>
                <path class="cls-13" d="M267.12,10.2h204.04c3.99,0,7.22,3.24,7.22,7.22v53.03h-218.49V17.42c0-3.99,3.24-7.22,7.22-7.22Z"/>
              </g>
              <g>
                <path class="cls-17" d="M390.26,50.16h-26.63c-.62,0-1.12-.5-1.12-1.12h0c0-.62.5-1.12,1.12-1.12h26.63c.62,0,1.12.5,1.12,1.12h0c0,.62-.5,1.12-1.12,1.12Z"/>
                <path class="cls-17" d="M422.6,50.16h-26.63c-.62,0-1.12-.5-1.12-1.12h0c0-.62.5-1.12,1.12-1.12h26.63c.62,0,1.12.5,1.12,1.12h0c0,.62-.5,1.12-1.12,1.12Z"/>
                <path class="cls-17" d="M450.72,50.16h-21.65c-.62,0-1.12-.5-1.12-1.12h0c0-.62.5-1.12,1.12-1.12h21.65c.62,0,1.12.5,1.12,1.12h0c0,.62-.5,1.12-1.12,1.12Z"/>
                <path class="cls-17" d="M377.66,57h-14.04c-.62,0-1.12-.5-1.12-1.12h0c0-.62.5-1.12,1.12-1.12h14.04c.62,0,1.12.5,1.12,1.12h0c0,.62-.5,1.12-1.12,1.12Z"/>
                <path class="cls-17" d="M398.4,57h-14.04c-.62,0-1.12-.5-1.12-1.12h0c0-.62.5-1.12,1.12-1.12h14.04c.62,0,1.12.5,1.12,1.12h0c0,.62-.5,1.12-1.12,1.12Z"/>
                <path class="cls-17" d="M432.66,57h-26.6c-.62,0-1.12-.5-1.12-1.12h0c0-.62.5-1.12,1.12-1.12h26.6c.62,0,1.12.5,1.12,1.12h0c0,.62-.5,1.12-1.12,1.12Z"/>
                <path class="cls-17" d="M450.72,57h-11.12c-.62,0-1.12-.5-1.12-1.12h0c0-.62.5-1.12,1.12-1.12h11.12c.62,0,1.12.5,1.12,1.12h0c0,.62-.5,1.12-1.12,1.12Z"/>
              </g>
              <g>
                <g>
                  <g>
                    <path class="cls-13" d="M380.39,106.66h-29.28c-.62,0-1.12-.5-1.12-1.12h0c0-.62.5-1.12,1.12-1.12h29.28c.62,0,1.12.5,1.12,1.12h0c0,.62-.5,1.12-1.12,1.12Z"/>
                    <path class="cls-13" d="M397.2,106.66h-9.88c-.62,0-1.12-.5-1.12-1.12h0c0-.62.5-1.12,1.12-1.12h9.88c.62,0,1.12.5,1.12,1.12h0c0,.62-.5,1.12-1.12,1.12Z"/>
                    <path class="cls-13" d="M428.62,106.66h-24.48c-.62,0-1.12-.5-1.12-1.12h0c0-.62.5-1.12,1.12-1.12h24.48c.62,0,1.12.5,1.12,1.12h0c0,.62-.5,1.12-1.12,1.12Z"/>
                    <path class="cls-13" d="M450.72,106.66h-14.06c-.62,0-1.12-.5-1.12-1.12h0c0-.62.5-1.12,1.12-1.12h14.06c.62,0,1.12.5,1.12,1.12h0c0,.62-.5,1.12-1.12,1.12Z"/>
                  </g>
                  <g>
                    <path class="cls-13" d="M377.87,120.5h-26.75c-.62,0-1.12-.5-1.12-1.12h0c0-.62.5-1.12,1.12-1.12h26.75c.62,0,1.12.5,1.12,1.12h0c0,.62-.5,1.12-1.12,1.12Z"/>
                    <path class="cls-13" d="M393.34,120.5h-8.91c-.62,0-1.12-.5-1.12-1.12h0c0-.62.5-1.12,1.12-1.12h8.91c.62,0,1.12.5,1.12,1.12h0c0,.62-.5,1.12-1.12,1.12Z"/>
                    <path class="cls-13" d="M422.24,120.5h-22.34c-.62,0-1.12-.5-1.12-1.12h0c0-.62.5-1.12,1.12-1.12h22.34c.62,0,1.12.5,1.12,1.12h0c0,.62-.5,1.12-1.12,1.12Z"/>
                  </g>
                  <g>
                    <path class="cls-13" d="M439.19,111.08h11.53c.62,0,1.12.5,1.12,1.12h0c0,.62-.5,1.12-1.12,1.12h-11.53c-.62,0-1.12-.5-1.12-1.12h0c0-.62.5-1.12,1.12-1.12Z"/>
                    <path class="cls-13" d="M418.14,111.08h12.94c.62,0,1.12.5,1.12,1.12h0c0,.62-.5,1.12-1.12,1.12h-12.94c-.62,0-1.12-.5-1.12-1.12h0c0-.62.5-1.12,1.12-1.12Z"/>
                    <path class="cls-13" d="M378.79,111.08h31.23c.62,0,1.12.5,1.12,1.12h0c0,.62-.5,1.12-1.12,1.12h-31.23c-.62,0-1.12-.5-1.12-1.12h0c0-.62.5-1.12,1.12-1.12Z"/>
                    <path class="cls-13" d="M351.12,111.08h19.83c.62,0,1.12.5,1.12,1.12h0c0,.62-.5,1.12-1.12,1.12h-19.83c-.62,0-1.12-.5-1.12-1.12h0c0-.62.5-1.12,1.12-1.12Z"/>
                  </g>
                </g>
                <g>
                  <path class="cls-12" d="M380.5,98.07h-27.76c-1.51,0-2.74-1.23-2.74-2.74h0c0-1.51,1.23-2.74,2.74-2.74h27.76c1.51,0,2.74,1.23,2.74,2.74h0c0,1.51-1.23,2.74-2.74,2.74Z"/>
                  <path class="cls-12" d="M406.73,98.07h-17.6c-1.51,0-2.74-1.23-2.74-2.74h0c0-1.51,1.23-2.74,2.74-2.74h17.6c1.51,0,2.74,1.23,2.74,2.74h0c0,1.51-1.23,2.74-2.74,2.74Z"/>
                </g>
              </g>
              <g>
                <g>
                  <g>
                    <path class="cls-13" d="M380.39,156.33h-29.28c-.62,0-1.12-.5-1.12-1.12h0c0-.62.5-1.12,1.12-1.12h29.28c.62,0,1.12.5,1.12,1.12h0c0,.62-.5,1.12-1.12,1.12Z"/>
                    <path class="cls-13" d="M397.2,156.33h-9.88c-.62,0-1.12-.5-1.12-1.12h0c0-.62.5-1.12,1.12-1.12h9.88c.62,0,1.12.5,1.12,1.12h0c0,.62-.5,1.12-1.12,1.12Z"/>
                    <path class="cls-13" d="M428.62,156.33h-24.48c-.62,0-1.12-.5-1.12-1.12h0c0-.62.5-1.12,1.12-1.12h24.48c.62,0,1.12.5,1.12,1.12h0c0,.62-.5,1.12-1.12,1.12Z"/>
                    <path class="cls-13" d="M450.72,156.33h-14.06c-.62,0-1.12-.5-1.12-1.12h0c0-.62.5-1.12,1.12-1.12h14.06c.62,0,1.12.5,1.12,1.12h0c0,.62-.5,1.12-1.12,1.12Z"/>
                  </g>
                  <g>
                    <path class="cls-13" d="M439.19,160.75h11.53c.62,0,1.12.5,1.12,1.12h0c0,.62-.5,1.12-1.12,1.12h-11.53c-.62,0-1.12-.5-1.12-1.12h0c0-.62.5-1.12,1.12-1.12Z"/>
                    <path class="cls-13" d="M418.14,160.75h12.94c.62,0,1.12.5,1.12,1.12h0c0,.62-.5,1.12-1.12,1.12h-12.94c-.62,0-1.12-.5-1.12-1.12h0c0-.62.5-1.12,1.12-1.12Z"/>
                    <path class="cls-13" d="M378.79,160.75h31.23c.62,0,1.12.5,1.12,1.12h0c0,.62-.5,1.12-1.12,1.12h-31.23c-.62,0-1.12-.5-1.12-1.12h0c0-.62.5-1.12,1.12-1.12Z"/>
                    <path class="cls-13" d="M351.12,160.75h19.83c.62,0,1.12.5,1.12,1.12h0c0,.62-.5,1.12-1.12,1.12h-19.83c-.62,0-1.12-.5-1.12-1.12h0c0-.62.5-1.12,1.12-1.12Z"/>
                  </g>
                </g>
                <g>
                  <path class="cls-12" d="M378.97,142.26h27.76c1.51,0,2.74,1.23,2.74,2.74h0c0,1.51-1.23,2.74-2.74,2.74h-27.76c-1.51,0-2.74-1.23-2.74-2.74h0c0-1.51,1.23-2.74,2.74-2.74Z"/>
                  <path class="cls-12" d="M352.74,142.26h17.6c1.51,0,2.74,1.23,2.74,2.74h0c0,1.51-1.23,2.74-2.74,2.74h-17.6c-1.51,0-2.74-1.23-2.74-2.74h0c0-1.51,1.23-2.74,2.74-2.74Z"/>
                </g>
              </g>
              <g>
                <g>
                  <g>
                    <path class="cls-13" d="M380.39,198.82h-29.28c-.62,0-1.12-.5-1.12-1.12h0c0-.62.5-1.12,1.12-1.12h29.28c.62,0,1.12.5,1.12,1.12h0c0,.62-.5,1.12-1.12,1.12Z"/>
                    <path class="cls-13" d="M397.2,198.82h-9.88c-.62,0-1.12-.5-1.12-1.12h0c0-.62.5-1.12,1.12-1.12h9.88c.62,0,1.12.5,1.12,1.12h0c0,.62-.5,1.12-1.12,1.12Z"/>
                    <path class="cls-13" d="M428.62,198.82h-24.48c-.62,0-1.12-.5-1.12-1.12h0c0-.62.5-1.12,1.12-1.12h24.48c.62,0,1.12.5,1.12,1.12h0c0,.62-.5,1.12-1.12,1.12Z"/>
                    <path class="cls-13" d="M450.72,198.82h-14.06c-.62,0-1.12-.5-1.12-1.12h0c0-.62.5-1.12,1.12-1.12h14.06c.62,0,1.12.5,1.12,1.12h0c0,.62-.5,1.12-1.12,1.12Z"/>
                  </g>
                  <g>
                    <path class="cls-13" d="M377.87,212.66h-26.75c-.62,0-1.12-.5-1.12-1.12h0c0-.62.5-1.12,1.12-1.12h26.75c.62,0,1.12.5,1.12,1.12h0c0,.62-.5,1.12-1.12,1.12Z"/>
                    <path class="cls-13" d="M393.34,212.66h-8.91c-.62,0-1.12-.5-1.12-1.12h0c0-.62.5-1.12,1.12-1.12h8.91c.62,0,1.12.5,1.12,1.12h0c0,.62-.5,1.12-1.12,1.12Z"/>
                    <path class="cls-13" d="M422.24,212.66h-22.34c-.62,0-1.12-.5-1.12-1.12h0c0-.62.5-1.12,1.12-1.12h22.34c.62,0,1.12.5,1.12,1.12h0c0,.62-.5,1.12-1.12,1.12Z"/>
                  </g>
                  <g>
                    <path class="cls-13" d="M439.19,203.24h11.53c.62,0,1.12.5,1.12,1.12h0c0,.62-.5,1.12-1.12,1.12h-11.53c-.62,0-1.12-.5-1.12-1.12h0c0-.62.5-1.12,1.12-1.12Z"/>
                    <path class="cls-13" d="M418.14,203.24h12.94c.62,0,1.12.5,1.12,1.12h0c0,.62-.5,1.12-1.12,1.12h-12.94c-.62,0-1.12-.5-1.12-1.12h0c0-.62.5-1.12,1.12-1.12Z"/>
                    <path class="cls-13" d="M378.79,203.24h31.23c.62,0,1.12.5,1.12,1.12h0c0,.62-.5,1.12-1.12,1.12h-31.23c-.62,0-1.12-.5-1.12-1.12h0c0-.62.5-1.12,1.12-1.12Z"/>
                    <path class="cls-13" d="M351.12,203.24h19.83c.62,0,1.12.5,1.12,1.12h0c0,.62-.5,1.12-1.12,1.12h-19.83c-.62,0-1.12-.5-1.12-1.12h0c0-.62.5-1.12,1.12-1.12Z"/>
                  </g>
                </g>
                <g>
                  <path class="cls-12" d="M380.5,190.24h-27.76c-1.51,0-2.74-1.23-2.74-2.74h0c0-1.51,1.23-2.74,2.74-2.74h27.76c1.51,0,2.74,1.23,2.74,2.74h0c0,1.51-1.23,2.74-2.74,2.74Z"/>
                  <path class="cls-12" d="M406.73,190.24h-17.6c-1.51,0-2.74-1.23-2.74-2.74h0c0-1.51,1.23-2.74,2.74-2.74h17.6c1.51,0,2.74,1.23,2.74,2.74h0c0,1.51-1.23,2.74-2.74,2.74Z"/>
                </g>
              </g>
              <g>
                <g>
                  <g>
                    <path class="cls-13" d="M380.39,246.31h-29.28c-.62,0-1.12-.5-1.12-1.12h0c0-.62.5-1.12,1.12-1.12h29.28c.62,0,1.12.5,1.12,1.12h0c0,.62-.5,1.12-1.12,1.12Z"/>
                    <path class="cls-13" d="M397.2,246.31h-9.88c-.62,0-1.12-.5-1.12-1.12h0c0-.62.5-1.12,1.12-1.12h9.88c.62,0,1.12.5,1.12,1.12h0c0,.62-.5,1.12-1.12,1.12Z"/>
                    <path class="cls-13" d="M428.62,246.31h-24.48c-.62,0-1.12-.5-1.12-1.12h0c0-.62.5-1.12,1.12-1.12h24.48c.62,0,1.12.5,1.12,1.12h0c0,.62-.5,1.12-1.12,1.12Z"/>
                    <path class="cls-13" d="M450.72,246.31h-14.06c-.62,0-1.12-.5-1.12-1.12h0c0-.62.5-1.12,1.12-1.12h14.06c.62,0,1.12.5,1.12,1.12h0c0,.62-.5,1.12-1.12,1.12Z"/>
                  </g>
                  <g>
                    <path class="cls-13" d="M377.87,260.15h-26.75c-.62,0-1.12-.5-1.12-1.12h0c0-.62.5-1.12,1.12-1.12h26.75c.62,0,1.12.5,1.12,1.12h0c0,.62-.5,1.12-1.12,1.12Z"/>
                    <path class="cls-13" d="M393.34,260.15h-8.91c-.62,0-1.12-.5-1.12-1.12h0c0-.62.5-1.12,1.12-1.12h8.91c.62,0,1.12.5,1.12,1.12h0c0,.62-.5,1.12-1.12,1.12Z"/>
                    <path class="cls-13" d="M422.24,260.15h-22.34c-.62,0-1.12-.5-1.12-1.12h0c0-.62.5-1.12,1.12-1.12h22.34c.62,0,1.12.5,1.12,1.12h0c0,.62-.5,1.12-1.12,1.12Z"/>
                  </g>
                  <g>
                    <path class="cls-13" d="M439.19,250.73h11.53c.62,0,1.12.5,1.12,1.12h0c0,.62-.5,1.12-1.12,1.12h-11.53c-.62,0-1.12-.5-1.12-1.12h0c0-.62.5-1.12,1.12-1.12Z"/>
                    <path class="cls-13" d="M418.14,250.73h12.94c.62,0,1.12.5,1.12,1.12h0c0,.62-.5,1.12-1.12,1.12h-12.94c-.62,0-1.12-.5-1.12-1.12h0c0-.62.5-1.12,1.12-1.12Z"/>
                    <path class="cls-13" d="M378.79,250.73h31.23c.62,0,1.12.5,1.12,1.12h0c0,.62-.5,1.12-1.12,1.12h-31.23c-.62,0-1.12-.5-1.12-1.12h0c0-.62.5-1.12,1.12-1.12Z"/>
                    <path class="cls-13" d="M351.12,250.73h19.83c.62,0,1.12.5,1.12,1.12h0c0,.62-.5,1.12-1.12,1.12h-19.83c-.62,0-1.12-.5-1.12-1.12h0c0-.62.5-1.12,1.12-1.12Z"/>
                  </g>
                </g>
                <g>
                  <path class="cls-12" d="M380.5,237.72h-27.76c-1.51,0-2.74-1.23-2.74-2.74h0c0-1.51,1.23-2.74,2.74-2.74h27.76c1.51,0,2.74,1.23,2.74,2.74h0c0,1.51-1.23,2.74-2.74,2.74Z"/>
                  <path class="cls-12" d="M406.73,237.72h-17.6c-1.51,0-2.74-1.23-2.74-2.74h0c0-1.51,1.23-2.74,2.74-2.74h17.6c1.51,0,2.74,1.23,2.74,2.74h0c0,1.51-1.23,2.74-2.74,2.74Z"/>
                </g>
              </g>
              <g>
                <g>
                  <path class="cls-17" d="M308.7,108.61h-26.63c-.62,0-1.12-.5-1.12-1.12h0c0-.62.5-1.12,1.12-1.12h26.63c.62,0,1.12.5,1.12,1.12h0c0,.62-.5,1.12-1.12,1.12Z"/>
                  <path class="cls-17" d="M308.92,122.14h-26.63c-.62,0-1.12-.5-1.12-1.12h0c0-.62.5-1.12,1.12-1.12h26.63c.62,0,1.12.5,1.12,1.12h0c0,.62-.5,1.12-1.12,1.12Z"/>
                  <path class="cls-17" d="M296.1,115.45h-14.04c-.62,0-1.12-.5-1.12-1.12h0c0-.62.5-1.12,1.12-1.12h14.04c.62,0,1.12.5,1.12,1.12h0c0,.62-.5,1.12-1.12,1.12Z"/>
                  <path class="cls-17" d="M316.84,115.45h-14.04c-.62,0-1.12-.5-1.12-1.12h0c0-.62.5-1.12,1.12-1.12h14.04c.62,0,1.12.5,1.12,1.12h0c0,.62-.5,1.12-1.12,1.12Z"/>
                  <path class="cls-17" d="M308.91,128.98h-26.6c-.62,0-1.12-.5-1.12-1.12h0c0-.62.5-1.12,1.12-1.12h26.6c.62,0,1.12.5,1.12,1.12h0c0,.62-.5,1.12-1.12,1.12Z"/>
                </g>
                <path class="cls-1" d="M300.24,98.19h-16.32c-1.51,0-2.74-1.23-2.74-2.74h0c0-1.51,1.23-2.74,2.74-2.74h16.32c1.51,0,2.74,1.23,2.74,2.74h0c0,1.51-1.23,2.74-2.74,2.74Z"/>
              </g>
              <g>
                <g>
                  <path class="cls-17" d="M308.7,156.34h-26.63c-.62,0-1.12-.5-1.12-1.12h0c0-.62.5-1.12,1.12-1.12h26.63c.62,0,1.12.5,1.12,1.12h0c0,.62-.5,1.12-1.12,1.12Z"/>
                  <path class="cls-17" d="M308.92,169.88h-26.63c-.62,0-1.12-.5-1.12-1.12h0c0-.62.5-1.12,1.12-1.12h26.63c.62,0,1.12.5,1.12,1.12h0c0,.62-.5,1.12-1.12,1.12Z"/>
                  <path class="cls-17" d="M296.1,163.19h-14.04c-.62,0-1.12-.5-1.12-1.12h0c0-.62.5-1.12,1.12-1.12h14.04c.62,0,1.12.5,1.12,1.12h0c0,.62-.5,1.12-1.12,1.12Z"/>
                  <path class="cls-17" d="M316.84,163.19h-14.04c-.62,0-1.12-.5-1.12-1.12h0c0-.62.5-1.12,1.12-1.12h14.04c.62,0,1.12.5,1.12,1.12h0c0,.62-.5,1.12-1.12,1.12Z"/>
                  <path class="cls-17" d="M308.91,176.72h-26.6c-.62,0-1.12-.5-1.12-1.12h0c0-.62.5-1.12,1.12-1.12h26.6c.62,0,1.12.5,1.12,1.12h0c0,.62-.5,1.12-1.12,1.12Z"/>
                </g>
                <path class="cls-1" d="M300.24,145.93h-16.32c-1.51,0-2.74-1.23-2.74-2.74h0c0-1.51,1.23-2.74,2.74-2.74h16.32c1.51,0,2.74,1.23,2.74,2.74h0c0,1.51-1.23,2.74-2.74,2.74Z"/>
              </g>
              <g>
                <g>
                  <path class="cls-17" d="M308.7,204.08h-26.63c-.62,0-1.12-.5-1.12-1.12h0c0-.62.5-1.12,1.12-1.12h26.63c.62,0,1.12.5,1.12,1.12h0c0,.62-.5,1.12-1.12,1.12Z"/>
                  <path class="cls-17" d="M308.92,217.62h-26.63c-.62,0-1.12-.5-1.12-1.12h0c0-.62.5-1.12,1.12-1.12h26.63c.62,0,1.12.5,1.12,1.12h0c0,.62-.5,1.12-1.12,1.12Z"/>
                  <path class="cls-17" d="M296.1,210.92h-14.04c-.62,0-1.12-.5-1.12-1.12h0c0-.62.5-1.12,1.12-1.12h14.04c.62,0,1.12.5,1.12,1.12h0c0,.62-.5,1.12-1.12,1.12Z"/>
                  <path class="cls-17" d="M316.84,210.92h-14.04c-.62,0-1.12-.5-1.12-1.12h0c0-.62.5-1.12,1.12-1.12h14.04c.62,0,1.12.5,1.12,1.12h0c0,.62-.5,1.12-1.12,1.12Z"/>
                </g>
                <path class="cls-1" d="M300.24,193.67h-16.32c-1.51,0-2.74-1.23-2.74-2.74h0c0-1.51,1.23-2.74,2.74-2.74h16.32c1.51,0,2.74,1.23,2.74,2.74h0c0,1.51-1.23,2.74-2.74,2.74Z"/>
              </g>
              <g>
                <g>
                  <path class="cls-17" d="M308.7,247.01h-26.63c-.62,0-1.12-.5-1.12-1.12h0c0-.62.5-1.12,1.12-1.12h26.63c.62,0,1.12.5,1.12,1.12h0c0,.62-.5,1.12-1.12,1.12Z"/>
                  <path class="cls-17" d="M308.92,260.55h-26.63c-.62,0-1.12-.5-1.12-1.12h0c0-.62.5-1.12,1.12-1.12h26.63c.62,0,1.12.5,1.12,1.12h0c0,.62-.5,1.12-1.12,1.12Z"/>
                  <path class="cls-17" d="M296.1,253.85h-14.04c-.62,0-1.12-.5-1.12-1.12h0c0-.62.5-1.12,1.12-1.12h14.04c.62,0,1.12.5,1.12,1.12h0c0,.62-.5,1.12-1.12,1.12Z"/>
                  <path class="cls-17" d="M316.84,253.85h-14.04c-.62,0-1.12-.5-1.12-1.12h0c0-.62.5-1.12,1.12-1.12h14.04c.62,0,1.12.5,1.12,1.12h0c0,.62-.5,1.12-1.12,1.12Z"/>
                  <path class="cls-17" d="M308.91,267.39h-26.6c-.62,0-1.12-.5-1.12-1.12h0c0-.62.5-1.12,1.12-1.12h26.6c.62,0,1.12.5,1.12,1.12h0c0,.62-.5,1.12-1.12,1.12Z"/>
                </g>
                <path class="cls-1" d="M300.24,236.6h-16.32c-1.51,0-2.74-1.23-2.74-2.74h0c0-1.51,1.23-2.74,2.74-2.74h16.32c1.51,0,2.74,1.23,2.74,2.74h0c0,1.51-1.23,2.74-2.74,2.74Z"/>
              </g>
              <g>
                <rect class="cls-17" x="275.2" y="30.03" width="45.78" height="53.09"/>
                <g>
                  <polygon class="cls-17" points="293.44 62.46 298.08 68.29 295.14 72.37 292.39 63.7 293.44 62.46"/>
                  <polygon class="cls-12" points="298.09 68.27 296.53 70.51 297.25 72.08 296.67 81.18 298.09 81.18 298.09 68.27"/>
                  <polygon class="cls-17" points="302.74 62.46 298.1 68.29 301.04 72.37 303.79 63.7 302.74 62.46"/>
                  <polygon class="cls-12" points="298.09 68.27 299.65 70.51 298.94 72.08 299.51 81.18 298.09 81.18 298.09 68.27"/>
                  <g>
                    <polygon class="cls-1" points="299.65 70.51 298.94 72.08 299.29 78.39 303.16 75.41 302.98 65.71 300.52 71.76 299.65 70.51"/>
                    <polygon class="cls-1" points="297.25 72.08 296.53 70.51 295.66 71.76 293.2 65.71 293.02 75.41 296.89 78.39 297.25 72.08"/>
                    <path class="cls-1" d="M298.09,68.27h0s0,0,0,0l4.39-5.32h0c-.17-.33-.32-.89-.32-1.84h-8.13c0,.95-.15,1.51-.32,1.84h0s4.39,5.32,4.39,5.32Z"/>
                  </g>
                  <path class="cls-1" d="M305.78,51.85c.37-4.4.09-7.74-2.51-8.2.11-1.7-2.11-3.5-7.12-2.57-5.37,1-7.16,4.97-5.75,10.77-1.11-.02-1.71,1.16-1.26,2.36.33.89.85,1.54,1.33,1.96.21.18.53.26.87.26.71,2.2,1.64,3.96,2.21,4.95.8,1.36,2.68,1.89,4.53,1.89s3.74-.53,4.53-1.89c.58-.98,1.5-2.75,2.21-4.95.35,0,.66-.08.87-.26.49-.42,1-1.06,1.33-1.96.45-1.2-.15-2.38-1.26-2.36Z"/>
                  <path class="cls-12" d="M306.48,43.08c-1.11-1.69-5.29-4.9-10.76-3.41-5.47,1.49-7.28,3.84-6.74,7.3.32,2.04.53,1.38,1.02,4.64.08.53,1.13,1.2,1.2.91.07-.28.56-2.15.16-4.37-.23-1.28.76-2.21,2.33-2.11,1.22.07,2.78,1.07,4.41,1,2.05-.09,6.96-2.91,6.43.48-.58,3.72.12,3.68.24,5.05.07.8.57-.53,1.15-.68-.16-1.11,2.18-6.35.56-8.82Z"/>
                  <path class="cls-12" d="M313.31,67.49c1.58,1.4,3.37,13.69,3.37,13.69h-18.59l.05-3.33,5.65-14.15c2.81.86,8.01,2.46,9.51,3.79Z"/>
                  <path class="cls-12" d="M282.88,67.49c-1.58,1.4-3.37,13.69-3.37,13.69h18.59l-.05-3.33-5.65-14.15c-2.81.86-8.01,2.46-9.51,3.79Z"/>
                </g>
              </g>
            </g>
          </g>
          <g>
            <rect class="cls-12" x="362.62" y="33.38" width="37.2" height="6.03" rx="2.51" ry="2.51"/>
            <rect class="cls-12" x="403.01" y="33.38" width="37.2" height="6.03" rx="2.51" ry="2.51"/>
          </g>
        </g>
        <g>
          <rect class="cls-18" x="113.65" y="103.89" width="205.82" height="218.93" rx="5.89" ry="5.89" transform="translate(20.23 -18.75) rotate(5.2)"/>
          <g>
            <g>
              <rect class="cls-17" x="121.42" y="48.57" width="205.82" height="270.59" rx="5.89" ry="5.89" transform="translate(17.59 -19.58) rotate(5.2)"/>
              <path class="cls-14" d="M127.61,42.03h55.64v270.59h-55.64c-3.25,0-5.89-2.64-5.89-5.89V47.92c0-3.25,2.64-5.89,5.89-5.89Z" transform="translate(16.7 -13.09) rotate(5.2)"/>
              <path class="cls-7" d="M192.52,51.8h138.4c3.25,0,5.89,2.64,5.89,5.89v50.87h-144.29v-56.76h0Z" transform="translate(8.36 -23.66) rotate(5.2)"/>
            </g>
            <g>
              <circle class="cls-17" cx="190.58" cy="98.15" r="23.35"/>
              <g class="cls-19">
                <g>
                  <polygon class="cls-17" points="185.94 100.81 189.8 106.68 186.69 110.25 184.85 101.89 185.94 100.81"/>
                  <polygon class="cls-14" points="189.81 106.67 188.15 108.63 188.69 110.16 187.37 118.66 188.71 118.78 189.81 106.67"/>
                  <polygon class="cls-17" points="194.67 101.61 189.82 106.68 192.22 110.76 195.55 102.86 194.67 101.61"/>
                  <polygon class="cls-14" points="189.81 106.67 191.08 108.9 190.27 110.31 190.04 118.9 188.71 118.78 189.81 106.67"/>
                  <g>
                    <polygon class="cls-6" points="191.08 108.9 190.27 110.31 190.07 116.26 193.96 113.8 194.61 104.68 191.79 110.14 191.08 108.9"/>
                    <polygon class="cls-6" points="188.69 110.16 188.15 108.63 187.23 109.73 185.44 103.84 184.44 112.93 187.82 116.06 188.69 110.16"/>
                    <path class="cls-6" d="M189.81,106.67h0s0,0,0,0l4.57-4.61h0c-.13-.33-.23-.87-.14-1.75l-3.82-.35-3.82-.35c-.08.89-.27,1.4-.46,1.7h0s3.66,5.36,3.66,5.36Z"/>
                  </g>
                  <path class="cls-6" d="M198.43,91.91c.73-4.1.74-7.25-1.66-7.91.25-1.59-1.68-3.47-6.46-3.02-5.13.47-7.14,4.05-6.31,9.61-1.04-.12-1.7.94-1.39,2.1.24.86.67,1.52,1.09,1.95.18.19.47.28.8.32.48,2.12,1.2,3.86,1.66,4.83.63,1.34,2.35,2,4.09,2.16s3.55-.18,4.41-1.38c.63-.87,1.64-2.45,2.5-4.45.32.03.63-.02.84-.17.49-.35,1.03-.91,1.42-1.72.52-1.09.06-2.25-.98-2.32Z"/>
                  <path class="cls-14" d="M196.79,83.69c-.2,0,.35-4.43-4.91-3.5-5.26.93-7.62,1.62-8.25,4.86-.63,3.23-.38,5.25.03,5.55.4.31.94.95,1.03.69.09-.26-.14-3.64,1.13-4.33s4.55.18,8.07-.83c0,0,2.58-1.9,2.43,1.65-.15,3.55,1.09,3.42,1.09,4.72,0,.76.58-.45,1.14-.53-.05-1.06,4.04-8.53-1.76-8.28Z"/>
                  <path class="cls-14" d="M204.15,107.23c1.37,1.45,1.99,13.13,1.99,13.13l-17.44-1.59.33-3.12,6.51-12.79c2.57,1.04,7.3,2.99,8.6,4.37Z"/>
                  <path class="cls-14" d="M175.6,104.63c-1.61,1.18-4.33,12.56-4.33,12.56l17.44,1.59.24-3.13-4.1-13.76c-2.71.56-7.73,1.63-9.25,2.75Z"/>
                </g>
              </g>
            </g>
            <g>
              <rect class="cls-14" x="227.99" y="72.76" width="34.95" height="5.66" rx="2.36" ry="2.36" transform="translate(7.86 -21.94) rotate(5.2)"/>
              <rect class="cls-14" x="265.78" y="76.2" width="34.95" height="5.66" rx="2.36" ry="2.36" transform="translate(8.33 -25.36) rotate(5.2)"/>
            </g>
            <g>
              <path class="cls-17" d="M253,88.42l-24.99-2.27c-.58-.05-1.01-.57-.96-1.15h0c.05-.58.57-1.01,1.15-.96l24.99,2.27c.58.05,1.01.57.96,1.15h0c-.05.58-.57,1.01-1.15.96Z"/>
              <path class="cls-17" d="M283.34,91.18l-24.99-2.27c-.58-.05-1.01-.57-.96-1.15h0c.05-.58.57-1.01,1.15-.96l24.99,2.27c.58.05,1.01.57.96,1.15h0c-.05.58-.57,1.01-1.15.96Z"/>
              <path class="cls-17" d="M309.72,93.58l-20.31-1.85c-.58-.05-1.01-.57-.96-1.15h0c.05-.58.57-1.01,1.15-.96l20.31,1.85c.58.05,1.01.57.96,1.15h0c-.05.58-.57,1.01-1.15.96Z"/>
              <path class="cls-17" d="M240.6,93.76l-13.17-1.2c-.58-.05-1.01-.57-.96-1.15h0c.05-.58.57-1.01,1.15-.96l13.17,1.2c.58.05,1.01.57.96,1.15h0c-.05.58-.57,1.01-1.15.96Z"/>
              <path class="cls-17" d="M260.06,95.53l-13.17-1.2c-.58-.05-1.01-.57-.96-1.15h0c.05-.58.57-1.01,1.15-.96l13.17,1.2c.58.05,1.01.57.96,1.15h0c-.05.58-.57,1.01-1.15.96Z"/>
              <path class="cls-17" d="M292.2,98.46l-24.96-2.27c-.58-.05-1.01-.57-.96-1.15h0c.05-.58.57-1.01,1.15-.96l24.96,2.27c.58.05,1.01.57.96,1.15h0c-.05.58-.57,1.01-1.15.96Z"/>
              <path class="cls-17" d="M309.14,100l-10.43-.95c-.58-.05-1.01-.57-.96-1.15h0c.05-.58.57-1.01,1.15-.96l10.43.95c.58.05,1.01.57.96,1.15h0c-.05.58-.57,1.01-1.15.96Z"/>
            </g>
            <g>
              <g>
                <g>
                  <path class="cls-7" d="M238.92,140.59l-27.47-2.5c-.58-.05-1.01-.57-.96-1.15h0c.05-.58.57-1.01,1.15-.96l27.47,2.5c.58.05,1.01.57.96,1.15h0c-.05.58-.57,1.01-1.15.96Z"/>
                  <path class="cls-7" d="M254.69,142.02l-9.27-.84c-.58-.05-1.01-.57-.96-1.15h0c.05-.58.57-1.01,1.15-.96l9.27.84c.58.05,1.01.57.96,1.15h0c-.05.58-.57,1.01-1.15.96Z"/>
                  <path class="cls-7" d="M284.17,144.71l-22.97-2.09c-.58-.05-1.01-.57-.96-1.15h0c.05-.58.57-1.01,1.15-.96l22.97,2.09c.58.05,1.01.57.96,1.15h0c-.05.58-.57,1.01-1.15.96Z"/>
                  <path class="cls-7" d="M304.9,146.59l-13.19-1.2c-.58-.05-1.01-.57-.96-1.15h0c.05-.58.57-1.01,1.15-.96l13.19,1.2c.58.05,1.01.57.96,1.15h0c-.05.58-.57,1.01-1.15.96Z"/>
                </g>
                <g>
                  <path class="cls-7" d="M235.37,153.35l-25.1-2.28c-.58-.05-1.01-.57-.96-1.15h0c.05-.58.57-1.01,1.15-.96l25.1,2.28c.58.05,1.01.57.96,1.15h0c-.05.58-.57,1.01-1.15.96Z"/>
                  <path class="cls-7" d="M249.88,154.67l-8.36-.76c-.58-.05-1.01-.57-.96-1.15h0c.05-.58.57-1.01,1.15-.96l8.36.76c.58.05,1.01.57.96,1.15h0c-.05.58-.57,1.01-1.15.96Z"/>
                  <path class="cls-7" d="M276.99,157.14l-20.96-1.91c-.58-.05-1.01-.57-.96-1.15h0c.05-.58.57-1.01,1.15-.96l20.96,1.91c.58.05,1.01.57.96,1.15h0c-.05.58-.57,1.01-1.15.96Z"/>
                </g>
                <g>
                  <path class="cls-7" d="M293.7,149.75l10.82.98c.58.05,1.01.57.96,1.15h0c-.05.58-.57,1.01-1.15.96l-10.82-.98c-.58-.05-1.01-.57-.96-1.15h0c.05-.58.57-1.01,1.15-.96Z"/>
                  <path class="cls-7" d="M273.95,147.96l12.14,1.11c.58.05,1.01.57.96,1.15h0c-.05.58-.57,1.01-1.15.96l-12.14-1.11c-.58-.05-1.01-.57-.96-1.15h0c.05-.58.57-1.01,1.15-.96Z"/>
                  <path class="cls-7" d="M237.04,144.59l29.3,2.67c.58.05,1.01.57.96,1.15h0c-.05.58-.57,1.01-1.15.96l-29.3-2.67c-.58-.05-1.01-.57-.96-1.15h0c.05-.58.57-1.01,1.15-.96Z"/>
                  <path class="cls-7" d="M211.08,142.23l18.61,1.69c.58.05,1.01.57.96,1.15h0c-.05.58-.57,1.01-1.15.96l-18.61-1.69c-.58-.05-1.01-.57-.96-1.15h0c.05-.58.57-1.01,1.15-.96Z"/>
                </g>
              </g>
              <g>
                <path class="cls-14" d="M239.75,132.54l-26.04-2.37c-1.42-.13-2.47-1.39-2.34-2.81h0c.13-1.42,1.39-2.47,2.81-2.34l26.04,2.37c1.42.13,2.47,1.39,2.34,2.81h0c-.13,1.42-1.39,2.47-2.81,2.34Z"/>
                <path class="cls-14" d="M264.37,134.78l-16.51-1.5c-1.42-.13-2.47-1.39-2.34-2.81h0c.13-1.42,1.39-2.47,2.81-2.34l16.51,1.5c1.42.13,2.47,1.39,2.34,2.81h0c-.13,1.42-1.39,2.47-2.81,2.34Z"/>
              </g>
            </g>
            <g>
              <g>
                <g>
                  <path class="cls-7" d="M234.68,187.18l-27.47-2.5c-.58-.05-1.01-.57-.96-1.15h0c.05-.58.57-1.01,1.15-.96l27.47,2.5c.58.05,1.01.57.96,1.15h0c-.05.58-.57,1.01-1.15.96Z"/>
                  <path class="cls-7" d="M250.45,188.62l-9.27-.84c-.58-.05-1.01-.57-.96-1.15h0c.05-.58.57-1.01,1.15-.96l9.27.84c.58.05,1.01.57.96,1.15h0c-.05.58-.57,1.01-1.15.96Z"/>
                  <path class="cls-7" d="M279.92,191.3l-22.97-2.09c-.58-.05-1.01-.57-.96-1.15h0c.05-.58.57-1.01,1.15-.96l22.97,2.09c.58.05,1.01.57.96,1.15h0c-.05.58-.57,1.01-1.15.96Z"/>
                  <path class="cls-7" d="M300.65,193.19l-13.19-1.2c-.58-.05-1.01-.57-.96-1.15h0c.05-.58.57-1.01,1.15-.96l13.19,1.2c.58.05,1.01.57.96,1.15h0c-.05.58-.57,1.01-1.15.96Z"/>
                </g>
                <g>
                  <path class="cls-7" d="M289.46,196.35l10.82.98c.58.05,1.01.57.96,1.15h0c-.05.58-.57,1.01-1.15.96l-10.82-.98c-.58-.05-1.01-.57-.96-1.15h0c.05-.58.57-1.01,1.15-.96Z"/>
                  <path class="cls-7" d="M269.71,194.55l12.14,1.11c.58.05,1.01.57.96,1.15h0c-.05.58-.57,1.01-1.15.96l-12.14-1.11c-.58-.05-1.01-.57-.96-1.15h0c.05-.58.57-1.01,1.15-.96Z"/>
                  <path class="cls-7" d="M232.8,191.19l29.3,2.67c.58.05,1.01.57.96,1.15h0c-.05.58-.57,1.01-1.15.96l-29.3-2.67c-.58-.05-1.01-.57-.96-1.15h0c.05-.58.57-1.01,1.15-.96Z"/>
                  <path class="cls-7" d="M206.84,188.83l18.61,1.69c.58.05,1.01.57.96,1.15h0c-.05.58-.57,1.01-1.15.96l-18.61-1.69c-.58-.05-1.01-.57-.96-1.15h0c.05-.58.57-1.01,1.15-.96Z"/>
                </g>
              </g>
              <g>
                <path class="cls-14" d="M234.55,173.86l26.04,2.37c1.42.13,2.47,1.39,2.34,2.81h0c-.13,1.42-1.39,2.47-2.81,2.34l-26.04-2.37c-1.42-.13-2.47-1.39-2.34-2.81h0c.13-1.42,1.39-2.47,2.81-2.34Z"/>
                <path class="cls-14" d="M209.94,171.62l16.51,1.5c1.42.13,2.47,1.39,2.34,2.81h0c-.13,1.42-1.39,2.47-2.81,2.34l-16.51-1.5c-1.42-.13-2.47-1.39-2.34-2.81h0c.13-1.42,1.39-2.47,2.81-2.34Z"/>
              </g>
            </g>
            <g>
              <g>
                <g>
                  <path class="cls-7" d="M231.05,227.05l-27.47-2.5c-.58-.05-1.01-.57-.96-1.15h0c.05-.58.57-1.01,1.15-.96l27.47,2.5c.58.05,1.01.57.96,1.15h0c-.05.58-.57,1.01-1.15.96Z"/>
                  <path class="cls-7" d="M246.82,228.48l-9.27-.84c-.58-.05-1.01-.57-.96-1.15h0c.05-.58.57-1.01,1.15-.96l9.27.84c.58.05,1.01.57.96,1.15h0c-.05.58-.57,1.01-1.15.96Z"/>
                  <path class="cls-7" d="M276.29,231.17l-22.97-2.09c-.58-.05-1.01-.57-.96-1.15h0c.05-.58.57-1.01,1.15-.96l22.97,2.09c.58.05,1.01.57.96,1.15h0c-.05.58-.57,1.01-1.15.96Z"/>
                  <path class="cls-7" d="M297.02,233.05l-13.19-1.2c-.58-.05-1.01-.57-.96-1.15h0c.05-.58.57-1.01,1.15-.96l13.19,1.2c.58.05,1.01.57.96,1.15h0c-.05.58-.57,1.01-1.15.96Z"/>
                </g>
                <g>
                  <path class="cls-7" d="M227.5,239.81l-25.1-2.28c-.58-.05-1.01-.57-.96-1.15h0c.05-.58.57-1.01,1.15-.96l25.1,2.28c.58.05,1.01.57.96,1.15h0c-.05.58-.57,1.01-1.15.96Z"/>
                  <path class="cls-7" d="M242.01,241.13l-8.36-.76c-.58-.05-1.01-.57-.96-1.15h0c.05-.58.57-1.01,1.15-.96l8.36.76c.58.05,1.01.57.96,1.15h0c-.05.58-.57,1.01-1.15.96Z"/>
                  <path class="cls-7" d="M269.12,243.6l-20.96-1.91c-.58-.05-1.01-.57-.96-1.15h0c.05-.58.57-1.01,1.15-.96l20.96,1.91c.58.05,1.01.57.96,1.15h0c-.05.58-.57,1.01-1.15.96Z"/>
                </g>
                <g>
                  <path class="cls-7" d="M285.83,236.21l10.82.98c.58.05,1.01.57.96,1.15h0c-.05.58-.57,1.01-1.15.96l-10.82-.98c-.58-.05-1.01-.57-.96-1.15h0c.05-.58.57-1.01,1.15-.96Z"/>
                  <path class="cls-7" d="M266.08,234.41l12.14,1.11c.58.05,1.01.57.96,1.15h0c-.05.58-.57,1.01-1.15.96l-12.14-1.11c-.58-.05-1.01-.57-.96-1.15h0c.05-.58.57-1.01,1.15-.96Z"/>
                  <path class="cls-7" d="M229.17,231.05l29.3,2.67c.58.05,1.01.57.96,1.15h0c-.05.58-.57,1.01-1.15.96l-29.3-2.67c-.58-.05-1.01-.57-.96-1.15h0c.05-.58.57-1.01,1.15-.96Z"/>
                  <path class="cls-7" d="M203.21,228.69l18.61,1.69c.58.05,1.01.57.96,1.15h0c-.05.58-.57,1.01-1.15.96l-18.61-1.69c-.58-.05-1.01-.57-.96-1.15h0c.05-.58.57-1.01,1.15-.96Z"/>
                </g>
              </g>
              <g>
                <path class="cls-14" d="M231.88,219l-26.04-2.37c-1.42-.13-2.47-1.39-2.34-2.81h0c.13-1.42,1.39-2.47,2.81-2.34l26.04,2.37c1.42.13,2.47,1.39,2.34,2.81h0c-.13,1.42-1.39,2.47-2.81,2.34Z"/>
                <path class="cls-14" d="M256.49,221.24l-16.51-1.5c-1.42-.13-2.47-1.39-2.34-2.81h0c.13-1.42,1.39-2.47,2.81-2.34l16.51,1.5c1.42.13,2.47,1.39,2.34,2.81h0c-.13,1.42-1.39,2.47-2.81,2.34Z"/>
              </g>
            </g>
            <g>
              <g>
                <g>
                  <path class="cls-7" d="M227,271.6l-27.47-2.5c-.58-.05-1.01-.57-.96-1.15h0c.05-.58.57-1.01,1.15-.96l27.47,2.5c.58.05,1.01.57.96,1.15h0c-.05.58-.57,1.01-1.15.96Z"/>
                  <path class="cls-7" d="M242.77,273.03l-9.27-.84c-.58-.05-1.01-.57-.96-1.15h0c.05-.58.57-1.01,1.15-.96l9.27.84c.58.05,1.01.57.96,1.15h0c-.05.58-.57,1.01-1.15.96Z"/>
                  <path class="cls-7" d="M272.24,275.71l-22.97-2.09c-.58-.05-1.01-.57-.96-1.15h0c.05-.58.57-1.01,1.15-.96l22.97,2.09c.58.05,1.01.57.96,1.15h0c-.05.58-.57,1.01-1.15.96Z"/>
                  <path class="cls-7" d="M292.97,277.6l-13.19-1.2c-.58-.05-1.01-.57-.96-1.15h0c.05-.58.57-1.01,1.15-.96l13.19,1.2c.58.05,1.01.57.96,1.15h0c-.05.58-.57,1.01-1.15.96Z"/>
                </g>
                <g>
                  <path class="cls-7" d="M223.45,284.36l-25.1-2.28c-.58-.05-1.01-.57-.96-1.15h0c.05-.58.57-1.01,1.15-.96l25.1,2.28c.58.05,1.01.57.96,1.15h0c-.05.58-.57,1.01-1.15.96Z"/>
                  <path class="cls-7" d="M237.95,285.68l-8.36-.76c-.58-.05-1.01-.57-.96-1.15h0c.05-.58.57-1.01,1.15-.96l8.36.76c.58.05,1.01.57.96,1.15h0c-.05.58-.57,1.01-1.15.96Z"/>
                  <path class="cls-7" d="M265.07,288.15l-20.96-1.91c-.58-.05-1.01-.57-.96-1.15h0c.05-.58.57-1.01,1.15-.96l20.96,1.91c.58.05,1.01.57.96,1.15h0c-.05.58-.57,1.01-1.15.96Z"/>
                </g>
                <g>
                  <path class="cls-7" d="M281.78,280.76l10.82.98c.58.05,1.01.57.96,1.15h0c-.05.58-.57,1.01-1.15.96l-10.82-.98c-.58-.05-1.01-.57-.96-1.15h0c.05-.58.57-1.01,1.15-.96Z"/>
                  <path class="cls-7" d="M262.03,278.96l12.14,1.11c.58.05,1.01.57.96,1.15h0c-.05.58-.57,1.01-1.15.96l-12.14-1.11c-.58-.05-1.01-.57-.96-1.15h0c.05-.58.57-1.01,1.15-.96Z"/>
                  <path class="cls-7" d="M225.12,275.6l29.3,2.67c.58.05,1.01.57.96,1.15h0c-.05.58-.57,1.01-1.15.96l-29.3-2.67c-.58-.05-1.01-.57-.96-1.15h0c.05-.58.57-1.01,1.15-.96Z"/>
                  <path class="cls-7" d="M199.15,273.24l18.61,1.69c.58.05,1.01.57.96,1.15h0c-.05.58-.57,1.01-1.15.96l-18.61-1.69c-.58-.05-1.01-.57-.96-1.15h0c.05-.58.57-1.01,1.15-.96Z"/>
                </g>
              </g>
              <g>
                <rect class="cls-14" x="199.38" y="257.21" width="31.32" height="5.17" rx="2.58" ry="2.58" transform="translate(24.44 -18.43) rotate(5.2)"/>
                <rect class="cls-14" x="233.54" y="259.88" width="21.75" height="5.17" rx="2.58" ry="2.58" transform="translate(24.8 -21.08) rotate(5.2)"/>
              </g>
            </g>
            <g>
              <g>
                <path class="cls-17" d="M166.14,135.8l-24.99-2.27c-.58-.05-1.01-.57-.96-1.15h0c.05-.58.57-1.01,1.15-.96l24.99,2.27c.58.05,1.01.57.96,1.15h0c-.05.58-.57,1.01-1.15.96Z"/>
                <path class="cls-17" d="M165.19,148.52l-24.99-2.27c-.58-.05-1.01-.57-.96-1.15h0c.05-.58.57-1.01,1.15-.96l24.99,2.27c.58.05,1.01.57.96,1.15h0c-.05.58-.57,1.01-1.15.96Z"/>
                <path class="cls-17" d="M153.74,141.14l-13.17-1.2c-.58-.05-1.01-.57-.96-1.15h0c.05-.58.57-1.01,1.15-.96l13.17,1.2c.58.05,1.01.57.96,1.15h0c-.05.58-.57,1.01-1.15.96Z"/>
                <path class="cls-17" d="M173.19,142.91l-13.17-1.2c-.58-.05-1.01-.57-.96-1.15h0c.05-.58.57-1.01,1.15-.96l13.17,1.2c.58.05,1.01.57.96,1.15h0c-.05.58-.57,1.01-1.15.96Z"/>
                <path class="cls-17" d="M164.59,154.93l-24.96-2.27c-.58-.05-1.01-.57-.96-1.15h0c.05-.58.57-1.01,1.15-.96l24.96,2.27c.58.05,1.01.57.96,1.15h0c-.05.58-.57,1.01-1.15.96Z"/>
              </g>
              <path class="cls-7" d="M159.1,125.3l-15.31-1.39c-1.42-.13-2.47-1.39-2.34-2.81h0c.13-1.42,1.39-2.47,2.81-2.34l15.31,1.39c1.42.13,2.47,1.39,2.34,2.81h0c-.13,1.42-1.39,2.47-2.81,2.34Z"/>
            </g>
            <g>
              <g>
                <path class="cls-17" d="M162.06,180.59l-24.99-2.27c-.58-.05-1.01-.57-.96-1.15h0c.05-.58.57-1.01,1.15-.96l24.99,2.27c.58.05,1.01.57.96,1.15h0c-.05.58-.57,1.01-1.15.96Z"/>
                <path class="cls-17" d="M161.11,193.3l-24.99-2.27c-.58-.05-1.01-.57-.96-1.15h0c.05-.58.57-1.01,1.15-.96l24.99,2.27c.58.05,1.01.57.96,1.15h0c-.05.58-.57,1.01-1.15.96Z"/>
                <path class="cls-17" d="M149.66,185.93l-13.17-1.2c-.58-.05-1.01-.57-.96-1.15h0c.05-.58.57-1.01,1.15-.96l13.17,1.2c.58.05,1.01.57.96,1.15h0c-.05.58-.57,1.01-1.15.96Z"/>
                <path class="cls-17" d="M169.11,187.7l-13.17-1.2c-.58-.05-1.01-.57-.96-1.15h0c.05-.58.57-1.01,1.15-.96l13.17,1.2c.58.05,1.01.57.96,1.15h0c-.05.58-.57,1.01-1.15.96Z"/>
                <path class="cls-17" d="M160.52,199.72l-24.96-2.27c-.58-.05-1.01-.57-.96-1.15h0c.05-.58.57-1.01,1.15-.96l24.96,2.27c.58.05,1.01.57.96,1.15h0c-.05.58-.57,1.01-1.15.96Z"/>
              </g>
              <path class="cls-7" d="M155.02,170.09l-15.31-1.39c-1.42-.13-2.47-1.39-2.34-2.81h0c.13-1.42,1.39-2.47,2.81-2.34l15.31,1.39c1.42.13,2.47,1.39,2.34,2.81h0c-.13,1.42-1.39,2.47-2.81,2.34Z"/>
            </g>
            <g>
              <g>
                <path class="cls-17" d="M157.98,225.37l-24.99-2.27c-.58-.05-1.01-.57-.96-1.15h0c.05-.58.57-1.01,1.15-.96l24.99,2.27c.58.05,1.01.57.96,1.15h0c-.05.58-.57,1.01-1.15.96Z"/>
                <path class="cls-17" d="M157.04,238.09l-24.99-2.27c-.58-.05-1.01-.57-.96-1.15h0c.05-.58.57-1.01,1.15-.96l24.99,2.27c.58.05,1.01.57.96,1.15h0c-.05.58-.57,1.01-1.15.96Z"/>
                <path class="cls-17" d="M145.58,230.71l-13.17-1.2c-.58-.05-1.01-.57-.96-1.15h0c.05-.58.57-1.01,1.15-.96l13.17,1.2c.58.05,1.01.57.96,1.15h0c-.05.58-.57,1.01-1.15.96Z"/>
                <path class="cls-17" d="M165.04,232.48l-13.17-1.2c-.58-.05-1.01-.57-.96-1.15h0c.05-.58.57-1.01,1.15-.96l13.17,1.2c.58.05,1.01.57.96,1.15h0c-.05.58-.57,1.01-1.15.96Z"/>
              </g>
              <path class="cls-7" d="M150.94,214.88l-15.31-1.39c-1.42-.13-2.47-1.39-2.34-2.81h0c.13-1.42,1.39-2.47,2.81-2.34l15.31,1.39c1.42.13,2.47,1.39,2.34,2.81h0c-.13,1.42-1.39,2.47-2.81,2.34Z"/>
            </g>
            <g>
              <g>
                <path class="cls-17" d="M154.32,265.65l-24.99-2.27c-.58-.05-1.01-.57-.96-1.15h0c.05-.58.57-1.01,1.15-.96l24.99,2.27c.58.05,1.01.57.96,1.15h0c-.05.58-.57,1.01-1.15.96Z"/>
                <rect class="cls-17" x="127.37" y="275.11" width="27.21" height="2.12" rx="1.06" ry="1.06" transform="translate(25.62 -11.64) rotate(5.2)"/>
                <path class="cls-17" d="M141.92,270.99l-13.17-1.2c-.58-.05-1.01-.57-.96-1.15h0c.05-.58.57-1.01,1.15-.96l13.17,1.2c.58.05,1.01.57.96,1.15h0c-.05.58-.57,1.01-1.15.96Z"/>
                <path class="cls-17" d="M161.37,272.76l-13.17-1.2c-.58-.05-1.01-.57-.96-1.15h0c.05-.58.57-1.01,1.15-.96l13.17,1.2c.58.05,1.01.57.96,1.15h0c-.05.58-.57,1.01-1.15.96Z"/>
                <path class="cls-17" d="M152.77,284.78l-24.96-2.27c-.58-.05-1.01-.57-.96-1.15h0c.05-.58.57-1.01,1.15-.96l24.96,2.27c.58.05,1.01.57.96,1.15h0c-.05.58-.57,1.01-1.15.96Z"/>
              </g>
              <path class="cls-7" d="M147.28,255.15l-15.31-1.39c-1.42-.13-2.47-1.39-2.34-2.81h0c.13-1.42,1.39-2.47,2.81-2.34l15.31,1.39c1.42.13,2.47,1.39,2.34,2.81h0c-.13,1.42-1.39,2.47-2.81,2.34Z"/>
            </g>
          </g>
        </g>
        <path class="cls-8" d="M325.85,364.39c2.79.37,5.59.64,8.39.79.36.02.73.03,1.09.06.41.02-.08,0-.14,0,.16,0,.31.01.47.02.73.03,1.46.04,2.19.05,1.41.02,2.81.02,4.22-.02,5.62-.13,11.23-.68,16.77-1.66.82-.14,1.64-.3,2.46-.46.36-.07.71-.14,1.07-.22.15-.03.31-.06.46-.1.98-.21-.41.1.16-.03,1.57-.36,3.14-.74,4.7-1.17,1.81-.49,3.99.19,4.61,2.15.54,1.73-.21,4.08-2.15,4.61-11.65,3.15-23.63,4.46-35.69,3.93-3.28-.14-6.55-.43-9.8-.86-1.87-.25-3.34-2.29-2.94-4.14.42-1.96,2.15-3.2,4.14-2.94h0Z"/>
        <path class="cls-8" d="M81.29,143.96c-.24.37-.47.75-.68,1.14-.08.16-.16.31-.25.47-.41.77.2-.51.01-.04-.32.78-.62,1.55-.84,2.37-.12.43-.21.86-.31,1.29-.15.66.05-.45,0,0-.03.22-.06.44-.09.66-.09.84-.13,1.68-.11,2.52,0,.39,0,.8.06,1.19-.06-.44-.04-.42.02,0,.03.22.06.44.1.66.14.83.34,1.65.59,2.45.03.08.05.17.08.25.08.25.05.17-.09-.24-.03.06.16.42.19.49.17.41.35.81.54,1.21.2.39.41.78.63,1.16.09.15.19.3.28.45.47.77-.46-.62.07.11,1.1,1.52,1.35,3.75-.26,5.08-1.37,1.13-3.9,1.37-5.08-.26-5.25-7.23-5.83-17.2-.93-24.81,1.02-1.58,3.36-2.22,4.96-1.1,1.59,1.11,2.19,3.27,1.1,4.96h0Z"/>
        <path class="cls-8" d="M120.82,340.42c3.74,1.96,7.63,3.64,11.63,5.01.49.17.99.33,1.48.49.22.07.44.14.66.21.08.02.95.29.54.16-.36-.11.31.09.37.11.28.08.56.16.84.23.5.14,1.01.27,1.51.4,2.08.52,4.17.96,6.29,1.31,1.85.31,3.39,2.17,3.01,4.1-.38,1.88-2.11,3.35-4.1,3.01-8.75-1.49-17.3-4.33-25.16-8.46-1.66-.87-2.72-2.94-1.81-4.75.83-1.65,2.97-2.75,4.75-1.81h0Z"/>
        <g>
          <path class="cls-8" d="M56.82,82.74c-2.39-2.23-3.31-4.91-2.91-8.1l.19-1.46c.23-1.35.33-2.4.33-3.04-.04-.74-.36-1.25-.84-1.82-1.37-1.24-3.1-.81-5.22,1.53-.99,1.02-1.9,2.26-2.61,3.67-.75,1.31-1.31,2.79-1.87,4.27l-5.4-5.1c1.08-3.08,2.76-5.88,5.23-8.62,2.69-2.82,5.44-4.53,8.25-5.12,2.8-.59,5.23.11,7.31,2.2,1.17,1.06,1.91,2.29,2.11,3.47s.26,2.93-.04,5.07c-.19,1.46-.28,2.51-.36,3.3s.03,1.38.25,1.93.69,1.12,1.32,1.76l.63.64-5.8,6.19-.56-.79h0ZM65.84,89.97c-1.23.1-2.29-.37-3.12-1.19-.98-.88-1.36-1.87-1.46-3.1-.06-1.12.37-2.29,1.3-3.16.88-.98,1.87-1.36,3.1-1.46s2.29.37,3.23,1.14c.98.88,1.36,1.87,1.35,3.14s-.37,2.29-1.3,3.16c-.82.82-1.87,1.36-3.1,1.46h0Z"/>
          <path class="cls-8" d="M79.73,33.15c.13-4.85,2.17-8.69,6.07-11.35l1.91-1.25c1.85-1.1,3.1-2.1,3.74-2.72.71-.78,1.11-1.7,1.09-2.7.05-2.8-2.3-4.28-6.9-4.39-2.17-.04-4.35.18-6.68.71s-4.56,1.27-6.56,2.31l.22-11.09C77.09.8,82.04-.12,87.53.01c5.86.11,10.55,1.44,13.97,4.03s5,6.01,4.97,10.45c-.06,2.43-.67,4.43-1.76,5.87s-3.09,3.1-5.79,4.92c-1.8,1.21-3.17,2.25-3.92,2.92s-1.46,1.45-1.9,2.26c-.44.81-.65,1.9-.66,3.17l.03,1.38-12.66-.37-.08-1.49h0ZM80.83,50.55c-1.26-1.28-1.9-2.92-1.73-4.76.02-1.9.68-3.43,2.07-4.73s2.97-1.79,4.87-1.77,3.43.68,4.73,2.07c1.26,1.28,1.9,2.92,1.84,4.72s-.68,3.43-2.07,4.73c-1.28,1.26-2.97,1.79-4.87,1.77-2.06-.08-3.73-.82-4.84-2.03h0Z"/>
        </g>
        <path class="cls-8" d="M72.47,299.72c0,1.41-1.18,2.59-2.59,2.59s-2.59-1.18-2.59-2.59,1.18-2.59,2.59-2.59,2.59,1.18,2.59,2.59Z"/>
        <circle class="cls-8" cx="443.57" cy="352.6" r="4.83"/>
        <circle class="cls-8" cx="52.27" cy="253.14" r="2.41"/>
        <path class="cls-4" d="M89.67,323.04c0,1.41-1.18,2.59-2.59,2.59s-2.59-1.18-2.59-2.59,1.18-2.59,2.59-2.59,2.59,1.18,2.59,2.59Z"/>
        <circle class="cls-8" cx="42.62" cy="271.1" r="4.83"/>
        <polygon class="cls-8" points="478.64 347.18 484.17 337.41 489.35 347.3 499.13 352.84 489.24 358.02 483.7 367.8 478.52 357.9 468.74 352.37 478.64 347.18"/>
        <polygon class="cls-8" points="230.93 18.39 233.99 12.97 236.93 18.39 242.35 21.45 236.82 24.39 233.75 29.81 230.81 24.39 225.39 21.21 230.93 18.39"/>
        <path class="cls-9" d="M102.14,252.16c.13-2.19.69-4.66,1.47-7.06-4.08-1.04-10.03-2.55-14.74-3.68-1.01,14.92-1.55,35.79-1.79,47.22l17.79-4.41,14.26-10.09s-17.81-8.13-16.99-21.98Z"/>
        <path class="cls-9" d="M6.11,347.25l67.16,17.36c29.31-32.27,39.5-43.44,39.51-43.48,1.01-2.27,5.59-13.56,8.94-17.43-6.52-6.93-9.89-10.52-12.65-13.45-.01-.04-18.08-65.4-18.12-65.41-1.95,4.54-25.4,67.2-40.96,82.61,0,0,0,0,0,0-.56.56-.4.33-.44.51-.5,1.93-19.48,17.8-42.82,36.83l-.63,2.44Z"/>
        <path class="cls-9" d="M86.53,241.73c.88.18,19.09-1.85,17.95.93-4.44,10.83-2.32,24.81,2.06,28.68,8.4,7.4,18.13.4,19.16-.42l-20.24,35.04c-7.33,3.53-49.14,18.05-49.87,15.45-3.01-10.64,28.7-80.12,30.93-79.67Z"/>
        <path class="cls-9" d="M107.82,327.72c18.84-9.64,34.72-39.76,37.75-48.97,5.66-17.23,18.29-28.55,17.39-31.3-.9-2.74-8.9-6.82-20.27,3.06-10.81,9.39-16.83,22.47-24.99,23.69-3.23.48-22.62,5.22-22.62,5.22,0,0,5.55,51.99,12.75,48.3Z"/>
        <path class="cls-16" d="M160.11,250.57c-.29-1.11-1.55.04-1.86.42-.23.28-.43.59-.64.89-.48.69-.93,1.39-1.38,2.09-.8,1.24-2.88,3.45-.93,4.6.54.32-.05,1.08-.58.77-2.87-1.7.12-5,1.27-6.77.74-1.12,1.56-2.86,2.94-3.31.98-.32,1.9.23,2.15,1.19.16.6-.81.72-.96.12h0Z"/>
        <path class="cls-5" d="M106.54,277.05c4.71-.71,9.3-1.97,13.7-3.77.84-.34,1.21,1.01.38,1.35-4.41,1.8-8.99,3.07-13.7,3.77-.89.13-1.28-1.22-.38-1.35h0Z"/>
        <path class="cls-5" d="M110.96,326.7c-4.07,1.84-8.43,2.78-12.91,2.77-.88,0-.79-1.36.08-1.36,5.34,0,7.8-.64,12.22-2.64.8-.36,1.4.86.6,1.22h0Z"/>
        <path class="cls-11" d="M81.72,373.5c-.24-.86-.88-1.85-1.84-2.95-1.12-1.28-2.67-2.72-4.54-4.27-9.51-7.96-27.02-19.1-35.24-29.7-4.59-5.92-8.27-10.68-11.63-13.93-1.08-1.04-2.12-1.93-3.15-2.65-3.59-2.51-7-2.98-11.03-.89-1.05.54-6.89,3.6-14.3,7.69l8.56,72.68c18.42,1.69,36.85,3.28,55.3,4.66,12.28-17.04,18.79-27.34,17.85-30.64Z"/>
        <path class="cls-17" d="M73.91,378.52s20.17-26.25,18.42-28.15c-1.75-1.9-36.53-33.53-43.04-44.82,0,0-.66-2.35-3.8-.37-3.14,1.98-28.58,21.13-28.58,21.13l18.11,36.15,38.89,16.06Z"/>
        <path class="cls-15" d="M85.97,353.54c.12-1.22-.77-2.3-1.99-2.42-1.22-.12-2.3.77-2.42,1.99-.12,1.22.77,2.3,1.99,2.42,1.22.12,2.3-.77,2.42-1.99Z"/>
      </g>
    </g>
  </g>
</svg>